<svg id="SvgjsSvg1164" width="680" height="492.140625" xmlns="http://www.w3.org/2000/svg" version="1.1" xmlns:xlink="http://www.w3.org/1999/xlink" xmlns:svgjs="http://svgjs.com/svgjs"><defs id="SvgjsDefs1165"><marker id="SvgjsMarker1200" markerWidth="16" markerHeight="12" refX="16" refY="6" viewBox="0 0 16 12" orient="auto" markerUnits="userSpaceOnUse"><path id="SvgjsPath1201" d="M0,2 L14,6 L0,11 L0,2" fill="#323232" stroke="#323232" stroke-width="2"></path></marker><marker id="SvgjsMarker1208" markerWidth="16" markerHeight="12" refX="16" refY="6" viewBox="0 0 16 12" orient="auto" markerUnits="userSpaceOnUse"><path id="SvgjsPath1209" d="M0,2 L14,6 L0,11 L0,2" fill="#323232" stroke="#323232" stroke-width="2"></path></marker><marker id="SvgjsMarker1216" markerWidth="16" markerHeight="12" refX="16" refY="6" viewBox="0 0 16 12" orient="auto" markerUnits="userSpaceOnUse"><path id="SvgjsPath1217" d="M0,2 L14,6 L0,11 L0,2" fill="#323232" stroke="#323232" stroke-width="2"></path></marker><marker id="SvgjsMarker1224" markerWidth="16" markerHeight="12" refX="16" refY="6" viewBox="0 0 16 12" orient="auto" markerUnits="userSpaceOnUse"><path id="SvgjsPath1225" d="M0,2 L14,6 L0,11 L0,2" fill="#323232" stroke="#323232" stroke-width="2"></path></marker><marker id="SvgjsMarker1232" markerWidth="16" markerHeight="12" refX="16" refY="6" viewBox="0 0 16 12" orient="auto" markerUnits="userSpaceOnUse"><path id="SvgjsPath1233" d="M0,2 L14,6 L0,11 L0,2" fill="#323232" stroke="#323232" stroke-width="2"></path></marker><marker id="SvgjsMarker1240" markerWidth="16" markerHeight="12" refX="16" refY="6" viewBox="0 0 16 12" orient="auto" markerUnits="userSpaceOnUse"><path id="SvgjsPath1241" d="M0,2 L14,6 L0,11 L0,2" fill="#323232" stroke="#323232" stroke-width="2"></path></marker><marker id="SvgjsMarker1248" markerWidth="16" markerHeight="12" refX="16" refY="6" viewBox="0 0 16 12" orient="auto" markerUnits="userSpaceOnUse"><path id="SvgjsPath1249" d="M0,2 L14,6 L0,11 L0,2" fill="#323232" stroke="#323232" stroke-width="2"></path></marker><marker id="SvgjsMarker1256" markerWidth="16" markerHeight="12" refX="16" refY="6" viewBox="0 0 16 12" orient="auto" markerUnits="userSpaceOnUse"><path id="SvgjsPath1257" d="M0,2 L14,6 L0,11 L0,2" fill="#323232" stroke="#323232" stroke-width="2"></path></marker><marker id="SvgjsMarker1264" markerWidth="16" markerHeight="12" refX="16" refY="6" viewBox="0 0 16 12" orient="auto" markerUnits="userSpaceOnUse"><path id="SvgjsPath1265" d="M0,2 L14,6 L0,11 L0,2" fill="#323232" stroke="#323232" stroke-width="2"></path></marker><marker id="SvgjsMarker1272" markerWidth="16" markerHeight="12" refX="16" refY="6" viewBox="0 0 16 12" orient="auto" markerUnits="userSpaceOnUse"><path id="SvgjsPath1273" d="M0,2 L14,6 L0,11 L0,2" fill="#323232" stroke="#323232" stroke-width="2"></path></marker><marker id="SvgjsMarker1280" markerWidth="16" markerHeight="12" refX="16" refY="6" viewBox="0 0 16 12" orient="auto" markerUnits="userSpaceOnUse"><path id="SvgjsPath1281" d="M0,2 L14,6 L0,11 L0,2" fill="#323232" stroke="#323232" stroke-width="2"></path></marker><marker id="SvgjsMarker1288" markerWidth="16" markerHeight="12" refX="16" refY="6" viewBox="0 0 16 12" orient="auto" markerUnits="userSpaceOnUse"><path id="SvgjsPath1289" d="M0,2 L14,6 L0,11 L0,2" fill="#323232" stroke="#323232" stroke-width="2"></path></marker><marker id="SvgjsMarker1296" markerWidth="16" markerHeight="12" refX="16" refY="6" viewBox="0 0 16 12" orient="auto" markerUnits="userSpaceOnUse"><path id="SvgjsPath1297" d="M0,2 L14,6 L0,11 L0,2" fill="#323232" stroke="#323232" stroke-width="2"></path></marker><marker id="SvgjsMarker1304" markerWidth="16" markerHeight="12" refX="16" refY="6" viewBox="0 0 16 12" orient="auto" markerUnits="userSpaceOnUse"><path id="SvgjsPath1305" d="M0,2 L14,6 L0,11 L0,2" fill="#323232" stroke="#323232" stroke-width="2"></path></marker><marker id="SvgjsMarker1312" markerWidth="16" markerHeight="12" refX="16" refY="6" viewBox="0 0 16 12" orient="auto" markerUnits="userSpaceOnUse"><path id="SvgjsPath1313" d="M0,2 L14,6 L0,11 L0,2" fill="#323232" stroke="#323232" stroke-width="2"></path></marker><marker id="SvgjsMarker1320" markerWidth="16" markerHeight="12" refX="16" refY="6" viewBox="0 0 16 12" orient="auto" markerUnits="userSpaceOnUse"><path id="SvgjsPath1321" d="M0,2 L14,6 L0,11 L0,2" fill="#323232" stroke="#323232" stroke-width="2"></path></marker></defs><g id="SvgjsG1166" transform="translate(115,219.578125)"><path id="SvgjsPath1167" d="M 0 20C 0 -6.666666666666667 40 -6.666666666666667 40 20C 40 46.666666666666664 0 46.666666666666664 0 20Z" stroke="rgba(50,50,50,1)" stroke-width="2" fill-opacity="1" fill="#ffffff"></path><g id="SvgjsG1168"><text id="SvgjsText1169" font-family="微软雅黑" text-anchor="middle" font-size="13px" width="0" fill="#323232" font-weight="400" align="top" anchor="middle" family="微软雅黑" size="13px" weight="400" font-style="" opacity="1" y="-1.95" transform="rotate(0)"></text></g></g><g id="SvgjsG1170" transform="translate(264,219.80034722222223)"><path id="SvgjsPath1171" d="M 0 19.77777777777778C 0 -6.592592592592593 40 -6.592592592592593 40 19.77777777777778C 40 46.14814814814815 0 46.14814814814815 0 19.77777777777778Z" stroke="rgba(50,50,50,1)" stroke-width="2" fill-opacity="1" fill="#ffffff"></path><g id="SvgjsG1172"><text id="SvgjsText1173" font-family="微软雅黑" text-anchor="middle" font-size="13px" width="0" fill="#323232" font-weight="400" align="top" anchor="middle" family="微软雅黑" size="13px" weight="400" font-style="" opacity="1" y="-1.95" transform="rotate(0)"></text></g></g><g id="SvgjsG1174" transform="translate(264,279.078125)"><path id="SvgjsPath1175" d="M 0 20C 0 -6.666666666666667 40 -6.666666666666667 40 20C 40 46.666666666666664 0 46.666666666666664 0 20Z" stroke="rgba(50,50,50,1)" stroke-width="2" fill-opacity="1" fill="#ffffff"></path><g id="SvgjsG1176"><text id="SvgjsText1177" font-family="微软雅黑" text-anchor="middle" font-size="13px" width="0" fill="#323232" font-weight="400" align="top" anchor="middle" family="微软雅黑" size="13px" weight="400" font-style="" opacity="1" y="-1.95" transform="rotate(0)"></text></g></g><g id="SvgjsG1178" transform="translate(264,339.078125)"><path id="SvgjsPath1179" d="M 0 20C 0 -6.666666666666667 40 -6.666666666666667 40 20C 40 46.666666666666664 0 46.666666666666664 0 20Z" stroke="rgba(50,50,50,1)" stroke-width="2" fill-opacity="1" fill="#ffffff"></path><g id="SvgjsG1180"><text id="SvgjsText1181" font-family="微软雅黑" text-anchor="middle" font-size="13px" width="0" fill="#323232" font-weight="400" align="top" anchor="middle" family="微软雅黑" size="13px" weight="400" font-style="" opacity="1" y="-1.95" transform="rotate(0)"></text></g></g><g id="SvgjsG1182" transform="translate(444,147.078125)"><path id="SvgjsPath1183" d="M 0 20C 0 -6.666666666666667 40 -6.666666666666667 40 20C 40 46.666666666666664 0 46.666666666666664 0 20Z" stroke="rgba(50,50,50,1)" stroke-width="2" fill-opacity="1" fill="#ffffff"></path><g id="SvgjsG1184"><text id="SvgjsText1185" font-family="微软雅黑" text-anchor="middle" font-size="13px" width="0" fill="#323232" font-weight="400" align="top" anchor="middle" family="微软雅黑" size="13px" weight="400" font-style="" opacity="1" y="-1.95" transform="rotate(0)"></text></g></g><g id="SvgjsG1186" transform="translate(444,209.078125)"><path id="SvgjsPath1187" d="M 0 20C 0 -6.666666666666667 40 -6.666666666666667 40 20C 40 46.666666666666664 0 46.666666666666664 0 20Z" stroke="rgba(50,50,50,1)" stroke-width="2" fill-opacity="1" fill="#ffffff"></path><g id="SvgjsG1188"><text id="SvgjsText1189" font-family="微软雅黑" text-anchor="middle" font-size="13px" width="0" fill="#323232" font-weight="400" align="top" anchor="middle" family="微软雅黑" size="13px" weight="400" font-style="" opacity="1" y="-1.95" transform="rotate(0)"></text></g></g><g id="SvgjsG1190" transform="translate(615,238.078125)"><path id="SvgjsPath1191" d="M 0 20C 0 -6.666666666666667 40 -6.666666666666667 40 20C 40 46.666666666666664 0 46.666666666666664 0 20Z" stroke="rgba(50,50,50,1)" stroke-width="2" fill-opacity="1" fill="#ffffff"></path><g id="SvgjsG1192"><text id="SvgjsText1193" font-family="微软雅黑" text-anchor="middle" font-size="13px" width="0" fill="#323232" font-weight="400" align="top" anchor="middle" family="微软雅黑" size="13px" weight="400" font-style="" opacity="1" y="-1.95" transform="rotate(0)"></text></g></g><g id="SvgjsG1194" transform="translate(444,283.078125)"><path id="SvgjsPath1195" d="M 0 20C 0 -6.666666666666667 40 -6.666666666666667 40 20C 40 46.666666666666664 0 46.666666666666664 0 20Z" stroke="rgba(50,50,50,1)" stroke-width="2" fill-opacity="1" fill="#ffffff"></path><g id="SvgjsG1196"><text id="SvgjsText1197" font-family="微软雅黑" text-anchor="middle" font-size="13px" width="0" fill="#323232" font-weight="400" align="top" anchor="middle" family="微软雅黑" size="13px" weight="400" font-style="" opacity="1" y="-1.95" transform="rotate(0)"></text></g></g><g id="SvgjsG1198"><path id="SvgjsPath1199" d="M155 239.578125C 198.43408883680013 243.37811538379788 220.56591116319987 243.37811538379788 264 239.578125" stroke="#323232" stroke-width="2" fill="none" marker-end="url(#SvgjsMarker1200)"></path><rect id="SvgjsRect1202" width="35" height="16" x="192" y="234.4281177878484" fill="#ffffff"></rect><text id="SvgjsText1203" font-family="微软雅黑" text-anchor="middle" font-size="13px" width="35" fill="#323232" font-weight="400" align="top" anchor="middle" family="微软雅黑" size="13px" weight="400" font-style="" opacity="1" y="232.47811778784842" transform="rotate(0)"><tspan id="SvgjsTspan1204" dy="16" x="209.5"><tspan id="SvgjsTspan1205" style="text-decoration:;">F0..F0</tspan></tspan></text></g><g id="SvgjsG1206"><path id="SvgjsPath1207" d="M149.99083174678913 251.49653208017912C 187.84564281267023 283.2604900838456 214.77209629306265 303.38500850350283 264 299.078125" stroke="#323232" stroke-width="2" fill="none" marker-end="url(#SvgjsMarker1208)"></path><rect id="SvgjsRect1210" width="35" height="16" x="185.23050613299847" y="280.81389410527805" fill="#ffffff"></rect><text id="SvgjsText1211" font-family="微软雅黑" text-anchor="middle" font-size="13px" width="35" fill="#323232" font-weight="400" align="top" anchor="middle" family="微软雅黑" size="13px" weight="400" font-style="" opacity="1" y="278.86389410527806" transform="rotate(0)"><tspan id="SvgjsTspan1212" dy="16" x="202.73050613299847"><tspan id="SvgjsTspan1213" style="text-decoration:;">F1..F3</tspan></tspan></text></g><g id="SvgjsG1214"><path id="SvgjsPath1215" d="M143.32993242186245 257.6316634074076C 169.38030924677054 313.4968767903049 205.54434854729766 336.13952279588807 265.08444427363844 352.0932433630328" stroke="#323232" stroke-width="2" fill="none" marker-end="url(#SvgjsMarker1216)"></path><rect id="SvgjsRect1218" width="35" height="16" x="174.14854375971316" y="311.8292631911274" fill="#ffffff"></rect><text id="SvgjsText1219" font-family="微软雅黑" text-anchor="middle" font-size="13px" width="35" fill="#323232" font-weight="400" align="top" anchor="middle" family="微软雅黑" size="13px" weight="400" font-style="" opacity="1" y="309.8792631911274" transform="rotate(0)"><tspan id="SvgjsTspan1220" dy="16" x="191.64854375971316"><tspan id="SvgjsTspan1221" style="text-decoration:;">F4..F4</tspan></tspan></text></g><g id="SvgjsG1222"><path id="SvgjsPath1223" d="M139.82690613107707 220.31844211870538C 172.03867879404123 100.10246993866468 396 133.078125 445.0844442736384 160.0932433630329" stroke="#323232" stroke-width="2" fill="none" marker-end="url(#SvgjsMarker1224)"></path><rect id="SvgjsRect1226" width="36" height="16" x="268.1284233483549" y="126.99418378721654" fill="#ffffff"></rect><text id="SvgjsText1227" font-family="微软雅黑" text-anchor="middle" font-size="13px" width="36" fill="#323232" font-weight="400" align="top" anchor="middle" family="微软雅黑" size="13px" weight="400" font-style="" opacity="1" y="125.04418378721654" transform="rotate(0)"><tspan id="SvgjsTspan1228" dy="16" x="286.1284233483549"><tspan id="SvgjsTspan1229" style="text-decoration:;">E0..E0</tspan></tspan></text></g><g id="SvgjsG1230"><path id="SvgjsPath1231" d="M145.11753957405477 222.30761538694628C 214.16807055261677 123.6932372054282 422 178.078125 446.07156065608376 219.7583953125502" stroke="#323232" stroke-width="2" fill="none" marker-end="url(#SvgjsMarker1232)"></path><rect id="SvgjsRect1234" width="40" height="16" x="292.46166398599865" y="160.42251216447264" fill="#ffffff"></rect><text id="SvgjsText1235" font-family="微软雅黑" text-anchor="middle" font-size="13px" width="40" fill="#323232" font-weight="400" align="top" anchor="middle" family="微软雅黑" size="13px" weight="400" font-style="" opacity="1" y="158.47251216447265" transform="rotate(0)"><tspan id="SvgjsTspan1236" dy="16" x="312.46166398599865"><tspan id="SvgjsTspan1237" style="text-decoration:;">ED..ED</tspan></tspan></text></g><g id="SvgjsG1238"><path id="SvgjsPath1239" d="M135 219.578125C 152.02239920184985 25.011211804373602 591 54.078125 622.754943107855 242.11479801284338" stroke="#323232" stroke-width="2" fill="none" marker-end="url(#SvgjsMarker1240)"></path><rect id="SvgjsRect1242" width="39" height="16" x="353.8527675891756" y="79.37011667824552" fill="#ffffff"></rect><text id="SvgjsText1243" font-family="微软雅黑" text-anchor="middle" font-size="13px" width="39" fill="#323232" font-weight="400" align="top" anchor="middle" family="微软雅黑" size="13px" weight="400" font-style="" opacity="1" y="77.42011667824552" transform="rotate(0)"><tspan id="SvgjsTspan1244" dy="16" x="373.3527675891756"><tspan id="SvgjsTspan1245" style="text-decoration:;">C2..DF</tspan></tspan></text></g><g id="SvgjsG1246"><path id="SvgjsPath1247" d="M304 239.578125C 364.56575114205384 244.87694162286198 386.8719685344969 279.0871994335206 445.5974599758482 294.82264744035155" stroke="#323232" stroke-width="2" fill="none" marker-end="url(#SvgjsMarker1248)"></path><rect id="SvgjsRect1250" width="37" height="16" x="356.9888273756876" y="255.28664945118737" fill="#ffffff"></rect><text id="SvgjsText1251" font-family="微软雅黑" text-anchor="middle" font-size="13px" width="37" fill="#323232" font-weight="400" align="top" anchor="middle" family="微软雅黑" size="13px" weight="400" font-style="" opacity="1" y="253.33664945118738" transform="rotate(0)"><tspan id="SvgjsTspan1252" dy="16" x="375.4888273756876"><tspan id="SvgjsTspan1253" style="text-decoration:;">90..BF</tspan></tspan></text></g><g id="SvgjsG1254"><path id="SvgjsPath1255" d="M304 299.078125C 359.80966861258895 303.9608383187401 388.190331387411 307.9608383187401 444 303.078125" stroke="#323232" stroke-width="2" fill="none" marker-end="url(#SvgjsMarker1256)"></path><rect id="SvgjsRect1258" width="37" height="16" x="355.5" y="296.7401599890551" fill="#ffffff"></rect><text id="SvgjsText1259" font-family="微软雅黑" text-anchor="middle" font-size="13px" width="37" fill="#323232" font-weight="400" align="top" anchor="middle" family="微软雅黑" size="13px" weight="400" font-style="" opacity="1" y="294.7901599890551" transform="rotate(0)"><tspan id="SvgjsTspan1260" dy="16" x="374"><tspan id="SvgjsTspan1261" style="text-decoration:;">80..BF</tspan></tspan></text></g><g id="SvgjsG1262"><path id="SvgjsPath1263" d="M304 359.078125C 363.68820543118636 364.30016632143526 391.09053239941056 334.9508303742215 445.3930552698399 309.6291481026033" stroke="#323232" stroke-width="2" fill="none" marker-end="url(#SvgjsMarker1264)"></path><rect id="SvgjsRect1266" width="36" height="16" x="358.7161585952038" y="337.8075328986967" fill="#ffffff"></rect><text id="SvgjsText1267" font-family="微软雅黑" text-anchor="middle" font-size="13px" width="36" fill="#323232" font-weight="400" align="top" anchor="middle" family="微软雅黑" size="13px" weight="400" font-style="" opacity="1" y="335.8575328986967" transform="rotate(0)"><tspan id="SvgjsTspan1268" dy="16" x="376.7161585952038"><tspan id="SvgjsTspan1269" style="text-decoration:;">80..8F</tspan></tspan></text></g><g id="SvgjsG1270"><path id="SvgjsPath1271" d="M484 303.078125C 538.9424668288394 307.88496799367255 569.1396038295647 293.94000834889243 616.9029297250984 266.3638392857143" stroke="#323232" stroke-width="2" fill="none" marker-end="url(#SvgjsMarker1272)"></path><rect id="SvgjsRect1274" width="37" height="16" x="534.6436427125388" y="288.86461166417615" fill="#ffffff"></rect><text id="SvgjsText1275" font-family="微软雅黑" text-anchor="middle" font-size="13px" width="37" fill="#323232" font-weight="400" align="top" anchor="middle" family="微软雅黑" size="13px" weight="400" font-style="" opacity="1" y="286.91461166417616" transform="rotate(0)"><tspan id="SvgjsTspan1276" dy="16" x="553.1436427125388"><tspan id="SvgjsTspan1277" style="text-decoration:;">80..BF</tspan></tspan></text></g><g id="SvgjsG1278"><path id="SvgjsPath1279" d="M483.4630327881224 172.02554206095675C 552 192.078125 545 200.078125 616.1081320068851 251.04646369181012" stroke="#323232" stroke-width="2" fill="none" marker-end="url(#SvgjsMarker1280)"></path><rect id="SvgjsRect1282" width="38" height="16" x="529.8213955993759" y="191.94259446909587" fill="#ffffff"></rect><text id="SvgjsText1283" font-family="微软雅黑" text-anchor="middle" font-size="13px" width="38" fill="#323232" font-weight="400" align="top" anchor="middle" family="微软雅黑" size="13px" weight="400" font-style="" opacity="1" y="189.99259446909588" transform="rotate(0)"><tspan id="SvgjsTspan1284" dy="16" x="548.8213955993759"><tspan id="SvgjsTspan1285" style="text-decoration:;">A0..BF</tspan></tspan></text></g><g id="SvgjsG1286"><path id="SvgjsPath1287" d="M482.87661381354917 234.07308554565566C 528 255.078125 561.4898492102675 262.7596565776644 615 258.078125" stroke="#323232" stroke-width="2" fill="none" marker-end="url(#SvgjsMarker1288)"></path><rect id="SvgjsRect1290" width="36" height="16" x="527.7932701805439" y="247.7080694098311" fill="#ffffff"></rect><text id="SvgjsText1291" font-family="微软雅黑" text-anchor="middle" font-size="13px" width="36" fill="#323232" font-weight="400" align="top" anchor="middle" family="微软雅黑" size="13px" weight="400" font-style="" opacity="1" y="245.7580694098311" transform="rotate(0)"><tspan id="SvgjsTspan1292" dy="16" x="545.7932701805439"><tspan id="SvgjsTspan1293" style="text-decoration:;">80..9F</tspan></tspan></text></g><g id="SvgjsG1294"><path id="SvgjsPath1295" d="M627.8672217658315 276.4027811985268C 576.8121313677004 466.9429725493742 152.19249185443584 456.08920611100007 135 259.578125" stroke="#323232" stroke-width="2" fill="none" marker-end="url(#SvgjsMarker1296)"></path><rect id="SvgjsRect1298" width="37" height="16" x="350.23513642903004" y="405.1346802724562" fill="#ffffff"></rect><text id="SvgjsText1299" font-family="微软雅黑" text-anchor="middle" font-size="13px" width="37" fill="#323232" font-weight="400" align="top" anchor="middle" family="微软雅黑" size="13px" weight="400" font-style="" opacity="1" y="403.1846802724562" transform="rotate(0)"><tspan id="SvgjsTspan1300" dy="16" x="368.73513642903004"><tspan id="SvgjsTspan1301" style="text-decoration:;">80..BF</tspan></tspan></text></g><g id="SvgjsG1302"><path id="SvgjsPath1303" d="M117.82962913144536 230.3722202255126C 59 182.078125 73 52.078125 135 219.578125" stroke="#323232" stroke-width="2" fill="none" marker-end="url(#SvgjsMarker1304)"></path><rect id="SvgjsRect1306" width="36" height="16" x="63.10370364143067" y="136.05238690318907" fill="#ffffff"></rect><text id="SvgjsText1307" font-family="微软雅黑" text-anchor="middle" font-size="13px" width="36" fill="#323232" font-weight="400" align="top" anchor="middle" family="微软雅黑" size="13px" weight="400" font-style="" opacity="1" y="134.10238690318909" transform="rotate(0)"><tspan id="SvgjsTspan1308" dy="16" x="81.10370364143067"><tspan id="SvgjsTspan1309" style="text-decoration:;">00..7F</tspan></tspan></text></g><g id="SvgjsG1310"><path id="SvgjsPath1311" d="M151.30622764849272 227.86383928571428C 257.39680635467823 166.6124151112149 381.4160862971894 187.25247335268415 451.6808334960607 287.60093200899087" stroke="#323232" stroke-width="2" fill="none" marker-end="url(#SvgjsMarker1312)"></path><rect id="SvgjsRect1314" width="78" height="16" x="275.9282173875195" y="189.13242958580028" fill="#ffffff"></rect><text id="SvgjsText1315" font-family="微软雅黑" text-anchor="middle" font-size="13px" width="78" fill="#323232" font-weight="400" align="top" anchor="middle" family="微软雅黑" size="13px" weight="400" font-style="" opacity="1" y="187.1824295858003" transform="rotate(0)"><tspan id="SvgjsTspan1316" dy="16" x="314.9282173875195"><tspan id="SvgjsTspan1317" style="text-decoration:;">E1..EC, EE..EF</tspan></tspan></text></g><g id="SvgjsG1318"><path id="SvgjsPath1319" d="M25 239.578125L115 239.578125" stroke="#323232" stroke-width="2" fill="none" marker-end="url(#SvgjsMarker1320)"></path></g></svg>